<svg width="144" height="28" viewBox="0 0 144 28" fill="none" xmlns="http://www.w3.org/2000/svg">
<path d="M17.3901 27H10.5821L2.70112 4.35596H0.370117V0.0639648H12.3581V4.35596H9.32412L14.0231 18.675L18.7221 4.35596H15.6141V0.0639648H27.5281V4.35596H25.1971L17.3901 27Z" fill="black"/>
<path d="M45.4653 27H38.6573L30.7763 4.35596H28.4453V0.0639648H40.4333V4.35596H37.3993L42.0983 18.675L46.7973 4.35596H43.6893V0.0639648H55.6033V4.35596H53.2723L45.4653 27Z" fill="black"/>
<path d="M59.6843 14.457C58.9196 15.3943 58.5373 16.6646 58.5373 18.268C58.5373 19.8713 58.9196 21.154 59.6843 22.116C60.449 23.0533 61.4973 23.522 62.8293 23.522C64.1613 23.522 65.2096 23.0533 65.9743 22.116C66.739 21.154 67.1213 19.8713 67.1213 18.268C67.1213 16.6646 66.739 15.3943 65.9743 14.457C65.2096 13.495 64.1613 13.014 62.8293 13.014C61.4973 13.014 60.449 13.495 59.6843 14.457ZM55.3553 24.817C53.5546 23.041 52.6543 20.858 52.6543 18.268C52.6543 15.678 53.5546 13.5073 55.3553 11.756C57.156 9.97997 59.6473 9.09197 62.8293 9.09197C66.0113 9.09197 68.5026 9.97997 70.3033 11.756C72.104 13.5073 73.0043 15.678 73.0043 18.268C73.0043 20.858 72.104 23.041 70.3033 24.817C68.5026 26.5683 66.0113 27.444 62.8293 27.444C59.6473 27.444 57.156 26.5683 55.3553 24.817Z" fill="black"/>
<path d="M73.7559 23.078H76.1609V13.458H73.7559V9.53597H82.0439V12.459C83.4499 10.313 85.4725 9.23997 88.1119 9.23997V14.457C87.5692 14.4076 87.0512 14.383 86.5579 14.383C85.2752 14.383 84.2515 14.7036 83.4869 15.345C82.7469 15.9616 82.2659 16.7386 82.0439 17.676V23.078H84.4489V27H73.7559V23.078Z" fill="black"/>
<path d="M103.224 3.98596H100.819V0.0639648H109.107V23.078H111.512V27H103.224V26.075C101.695 26.9876 99.931 27.444 97.933 27.444C95.3677 27.444 93.1477 26.593 91.273 24.891C89.423 23.1643 88.498 20.9566 88.498 18.268C88.498 15.5793 89.423 13.384 91.273 11.682C93.1477 9.9553 95.3677 9.09197 97.933 9.09197C99.9064 9.09197 101.67 9.56063 103.224 10.498V3.98596ZM99.006 23.522C100.807 23.522 102.213 22.819 103.224 21.413V15.16C102.237 13.7293 100.831 13.014 99.006 13.014C97.674 13.014 96.564 13.495 95.676 14.457C94.8127 15.419 94.381 16.6893 94.381 18.268C94.381 19.8466 94.8127 21.117 95.676 22.079C96.564 23.041 97.674 23.522 99.006 23.522Z" fill="black"/>
<path d="M112.237 23.078H114.642V3.98596H112.237V0.0639648H120.525V23.078H122.93V27H112.237V23.078Z" fill="black"/>
<path d="M139.232 21.339L141.97 24.299C141.896 24.373 141.785 24.484 141.637 24.632C141.514 24.78 141.206 25.039 140.712 25.409C140.244 25.7543 139.738 26.075 139.195 26.371C138.653 26.6423 137.95 26.889 137.086 27.111C136.223 27.333 135.335 27.444 134.422 27.444C131.438 27.444 128.922 26.6423 126.874 25.039C124.852 23.411 123.84 21.1046 123.84 18.12C123.84 15.678 124.741 13.569 126.541 11.793C128.342 9.9923 130.624 9.09197 133.386 9.09197C136.248 9.09197 138.616 9.9553 140.49 11.682C142.39 13.384 143.339 15.7396 143.339 18.749C143.339 18.823 143.327 18.9463 143.302 19.119C143.302 19.2916 143.302 19.4273 143.302 19.526H129.76C129.982 20.7593 130.513 21.746 131.351 22.486C132.19 23.2013 133.312 23.559 134.718 23.559C135.532 23.559 136.309 23.374 137.049 23.004C137.814 22.634 138.369 22.264 138.714 21.894L139.232 21.339ZM136.198 13.828C135.532 13.2853 134.718 13.014 133.756 13.014C132.794 13.014 131.98 13.31 131.314 13.902C130.648 14.4693 130.192 15.234 129.945 16.196H137.641C137.37 15.16 136.889 14.3706 136.198 13.828Z" fill="black"/>
</svg>
